<svg version="1" xmlns="http://www.w3.org/2000/svg" width="1266.667" height="1266.667" viewBox="0 0 950.000000 950.000000"><path d="M280.6 38.4c-4.9 1.9-9.4 6-11.7 11.1-1.7 3.7-1.9 7.3-1.9 48.3V142l-3.7 1.7c-10.4 4.8-20.1 13.5-26.5 23.8-9.2 15-11 34.2-4.7 51 6.6 17.7 23.4 32.8 41.1 37 7.8 1.8 20.3 1.9 28.6.1 19.4-4.2 37-21 43.2-41.1 2.4-8 2.9-21.9 1-30-2.3-9.5-8.6-20.7-15.5-27.6-6.2-6.1-17.4-13.9-20.1-13.9-1 0-1.4-9.6-1.6-45.3l-.3-45.2-2.8-4.8c-1.5-2.6-4.5-5.9-6.6-7.3-4.8-3.1-13-4-18.5-2zM647.5 38.8c-2.2 1.1-5.2 3.2-6.7 4.8C635 49.8 635 50 635 98v44l-5.2 2.5c-11.6 5.5-22.1 16.1-27.9 28.3-13.7 28.6-1.5 63.8 27.2 78.2 16.4 8.3 39.9 7.8 55.8-1.2 9.3-5.3 19.1-15.9 23.9-25.8 4.8-10 6.2-16.3 6.2-26.8-.1-16.3-5.3-28.5-17.5-40.8-5.6-5.7-9.8-9-14.2-11l-6.1-2.9-.4-44.5-.3-44.6-2.6-4.9c-3.5-6.9-8.9-10.5-16.5-11.1-4.5-.4-6.9 0-9.9 1.4z"/><path d="M159.1 63.1c-23.7 2.8-47.2 15-63.7 33.3-15.4 17-24.2 37.7-26.4 62-.5 5.5-.9 64.9-1 132v121.8L39.3 537.9 10.6 663.5V680c0 15.1.2 17.3 2.8 25.5 5.1 16.8 11.2 27.1 23.5 39.8 8 8.4 16.1 14.3 26.3 19.3l7.7 3.8 2.6 8.5c8 25.8 27.8 49 52.5 61.6 7.2 3.6 20.1 7.8 29.4 9.4 4 .8 49.2 1.1 136.5 1.1h130.6l137 31.1c127.2 29 137.8 31.2 148.6 31.7 28.8 1.1 53.7-10.2 74.7-34.1 4.5-5.2 8-10.8 12.5-19.9l6.2-12.6 6-2.2c26.7-9.8 50-32.9 60.4-60 1.7-4.2 3.9-12.2 5-17.7 2-9.9 2.1-13.1 2.1-123V529.4l31.6-139c17.4-76.4 32.1-142.8 32.7-147.7 2.8-22-4.5-48.1-18.8-66.7-5-6.5-15.5-16.5-22-21-5.3-3.7-22.5-12-24.7-12-1 0-2.1-2.2-3.2-6.2-5.9-21.2-20.8-42.2-39.2-55.4-9.6-6.9-25.7-14.1-37-16.6-9.3-2.1-12.3-2.3-48.4-2.3-42.6 0-41.8-.1-49.5 6.6-11.4 10-11.1 28.7.5 37.9 8.1 6.4 7.9 6.4 49 7l37.5.6 6.9 2.7c15 5.9 26 17.7 30.6 32.6 1.9 6 2 9.6 2 75.2V294H119.9l.3-69.8c.3-68.7.4-69.8 2.5-75.4 6.1-16.2 16.1-26.1 32-32.1 5.5-2 7.9-2.2 43.3-2.7 42.7-.6 42.7-.6 50.7-9.3 10-10.8 9.2-25.1-2-35.4-7.5-6.9-10.1-7.3-47.6-7.2-17.9.1-35.9.5-40 1zM823 550.4c0 200.3 0 204.5-2 210.7-5.8 18.8-21.3 32.7-40 35.9-4.6.8-93.8 1-312.5.8l-306-.3-6.6-2.2c-13.1-4.5-24.1-13.8-30-25.5-6.2-12.3-5.9.9-5.9-221.1V346h703v204.4z"/><path d="M298.8 427.5c-8.8 2.2-15.7 6.2-21.9 12.5-11.4 11.7-15.4 26.9-11.4 43.8 2 8.3 5.3 14.6 11.2 21.2 6.7 7.7 168.2 177.9 176.8 186.5 10.5 10.6 20.6 14.7 35.3 14.6 8 0 14.4-1.6 21.8-5.4 4.8-2.5 125.3-103.8 130.7-110 10.9-12.3 13.2-34.3 5.3-50.2-9.1-18.4-28.7-28.8-48.8-25.8-13.2 1.9-14.6 2.8-62.1 43l-44.2 37.4-10-10.3c-5.5-5.7-39-40.9-74.4-78.3-35.4-37.4-66.6-69.7-69.3-71.7-2.6-2-7.4-4.6-10.6-5.8-7.4-2.8-20.6-3.5-28.4-1.5zM341.4 63.1c-6.1 1.8-12.7 7.1-15.6 12.8-2.3 4.3-2.8 6.6-2.8 12 .1 10.6 4.8 18.3 14.4 23.4l4.1 2.2h265l5.4-3c8.9-4.9 13.5-12.6 13.5-22.5-.1-8.1-3-14.6-8.7-19.5-8-6.8-.3-6.5-143.1-6.4-74.2 0-130.4.5-132.2 1z"/></svg>